<svg width="549" height="288" viewBox="0 0 549 288" fill="none" xmlns="http://www.w3.org/2000/svg">
<g clip-path="url(#clip0_15_150)">
<path d="M86.3792 119.235C107.438 119.235 124.639 135.792 125.666 156.589H175.684C185.638 152.667 192.68 142.955 192.68 131.609V72.5517H125.713V82.1797C113.928 76.091 100.555 72.6545 86.3792 72.6545C38.9302 72.6545 0.464844 111.12 0.464844 158.569C0.464844 206.018 38.9302 244.483 86.3792 244.483C100.555 244.483 113.928 241.047 125.713 234.958V249.956H192.68V190.899C192.68 178.226 183.892 167.599 172.07 164.798C172.088 164.545 172.107 164.303 172.116 164.051H125.33C122.669 183.176 106.242 197.903 86.3792 197.903C64.6578 197.903 47.0454 180.29 47.0454 158.569C47.0454 136.847 64.6578 119.235 86.3792 119.235Z" fill="white" stroke="#231F20" stroke-width="0.933852" stroke-miterlimit="10"/>
<path d="M336.855 70.6913H376.974C391.794 70.6913 403.822 82.7194 403.822 97.5396V156.587H336.855V70.6913Z" fill="white" stroke="#231F20" stroke-width="0.933852" stroke-miterlimit="10"/>
<path d="M409.418 161.369H449.536C464.356 161.369 476.384 173.397 476.384 188.218V247.265H409.418V161.369Z" fill="white" stroke="#231F20" stroke-width="0.933852" stroke-miterlimit="10"/>
<path d="M336.855 162.304H403.822V221.351C403.822 236.171 391.794 248.199 376.974 248.199H336.855V162.304Z" fill="white" stroke="#231F20" stroke-width="0.933852" stroke-miterlimit="10"/>
<path d="M409.418 72.5517H476.384V131.599C476.384 146.419 464.356 158.447 449.536 158.447H409.418V72.5517Z" fill="white" stroke="#231F20" stroke-width="0.933852" stroke-miterlimit="10"/>
<path d="M332.652 70.6845V156.59H265.685V158.457H225.567C210.737 158.457 198.719 146.429 198.719 131.609V72.5522H265.685V97.5328C265.685 82.7032 277.704 70.6845 292.524 70.6845H332.652Z" fill="white" stroke="#231F20" stroke-width="0.933852" stroke-miterlimit="10"/>
<path d="M265.684 249.954H198.717V190.907C198.717 176.087 210.745 164.058 225.565 164.058H265.684V249.954Z" fill="white" stroke="#231F20" stroke-width="0.933852" stroke-miterlimit="10"/>
<path d="M172.122 164.05C168.863 164.05 159.44 164.059 148.318 164.059C138.018 164.059 129.165 164.05 125.336 164.05H172.122Z" fill="black" stroke="#231F20" stroke-width="0.933852" stroke-miterlimit="10"/>
<path d="M195.807 69.3011C199.484 69.3011 202.465 66.3201 202.465 62.6428C202.465 58.9655 199.484 55.9844 195.807 55.9844C192.129 55.9844 189.148 58.9655 189.148 62.6428C189.148 66.3201 192.129 69.3011 195.807 69.3011Z" fill="#231F20"/>
<path d="M198.73 249.954H192.688V263.448H198.73V249.954Z" fill="#231F20"/>
</g>
<defs>
<clipPath id="clip0_15_150">
<rect width="548.573" height="288" fill="white"/>
</clipPath>
</defs>
</svg>
